<?xml version="1.0" standalone="no"?><!DOCTYPE svg PUBLIC "-//W3C//DTD SVG 1.1//EN" "http://www.w3.org/Graphics/SVG/1.1/DTD/svg11.dtd"><svg class="icon" width="200px" height="200.00px" viewBox="0 0 1024 1024" version="1.1" xmlns="http://www.w3.org/2000/svg"><path d="M292.8 569.2c13.3-4.6 27.5-7.2 42.2-7.2h0.5c19.3-103.7 109.4-182.4 218.2-184.3-15.1-84.2-88.7-148.2-177.2-148.2-99.5 0-180.1 80.6-180.1 180.1-0.1 69.4 39 129.5 96.4 159.6z" fill="#FFF0C2" /><path d="M306.2 565.3c9.3-2.2 18.9-3.3 28.8-3.3h0.5c18.7-100.7 104.2-177.8 208.7-183.9C529.4 298.9 459.9 239 376.4 239c-94.3 0-170.7 76.4-170.7 170.7 0 69.3 41.2 128.8 100.5 155.6z" fill="#FFB948" /><path d="M427.2 223.5c-10.9-3.6-16.3-12.7-14.5-23.5l16.3-63.3c3.6-10.9 12.7-16.3 23.5-14.5 10.9 3.6 16.3 12.7 14.5 23.5L450.7 209c-1.8 10.9-12.6 16.3-23.5 14.5zM70.7 344.8c3.6-10.9 12.7-16.3 23.5-14.5l63.3 16.3c10.9 3.6 16.3 12.7 14.5 23.5-3.6 10.9-14.5 18.1-23.5 14.5l-63.3-16.3c-10.9-1.8-18.2-12.7-14.5-23.5zM550.3 304.9c-5.4-9-1.8-21.7 7.2-27.1l56.1-32.6c9-5.4 21.7-1.8 27.1 7.2 5.4 9 1.8 21.7-7.2 27.1l-56.1 32.6c-10.8 5.5-21.7 1.9-27.1-7.2zM99.6 567.4c-5.4-9-1.8-21.7 7.2-27.1l56.1-32.6c9-5.4 21.7-1.8 27.1 7.2 5.4 9 1.8 21.7-7.2 27.1l-56.1 32.6c-9 5.4-21.7 1.8-27.1-7.2zM211.8 138.4c9-5.4 21.7-1.8 27.1 7.2l32.6 56.1c5.4 9 1.8 21.7-7.2 27.1-9 5.4-21.7 1.8-27.1-7.2l-32.6-56.1c-5.4-10.8-1.8-21.6 7.2-27.1z" fill="#FFB948" /><path d="M763.9 862c-13.5 0-24.5-11-24.5-24.5s11-24.5 24.5-24.5c78 0 144-67.7 144-147.9 0-80.1-65.9-147.8-144-147.8-3.1 0-5.6 0-8.1 0.2l-15.2 0.8-7.5-13.3c-35.7-63.4-103-102.8-175.6-102.8-97 0-180.2 69.3-198 164.5l-3.7 20.2h-20.4c-0.3 0-0.7-0.2-1-0.3-59 0.3-108.7 51.9-108.7 113.1 0 61.4 50 113.2 109.3 113.2 13.5 0 24.5 10.9 24.5 24.5S348.6 862 335 862c-42.3 0-82.2-17.3-112.4-48.7-29.7-30.9-46-71.2-46-113.6 0-42.3 16.3-82.7 46-113.6 25.5-26.6 58-43 92.9-47.5 29-108.6 127.8-185.5 241.9-185.5 85.3 0 164.8 43.8 210.7 115.1 49.8 1.1 96.7 21.9 132.4 58.6 36.3 37.4 56.3 86.4 56.3 138.1 0 51.6-20 100.7-56.2 138.2-36.7 38-85.3 58.9-136.7 58.9z" fill="#9EB5C6" /><path d="M869.3 699.9H868c-9.2-0.7-16.1-8.7-15.4-17.9 2-26-6.5-52.7-23.3-73.3-17.1-20.9-40.7-33.5-66.3-35.5-1.7-0.1-3.4-0.2-5.4-0.3-6.4-0.1-12.2-4-14.9-9.8-3.9-8.4-0.2-18.3 8.2-22.2 2.9-1.3 6-1.8 8.9-1.4 2 0.1 3.9 0.2 5.8 0.3 34.8 2.7 66.7 19.6 89.6 47.6 22.2 27.2 33.5 62.5 30.8 97-0.8 8.8-8.1 15.5-16.7 15.5z" fill="#AEC5D3" /><path d="M447.7 812.8l-44.5 57.8c-5.1 7.4-2.2 18.9 6.5 26 8.8 7.1 20.3 7.4 26.2 0.6l44.5-57.8c5.3-7.4 2.5-19.1-6.4-26.3-8.8-7.2-20.5-7.3-26.3-0.3zM551.5 812.8L507 870.6c-5.1 7.4-2.2 18.9 6.5 26 8.8 7.1 20.3 7.4 26.2 0.6l44.5-57.8c5.3-7.4 2.5-19.1-6.4-26.3-8.8-7.2-20.5-7.3-26.3-0.3zM655.3 812.8l-44.5 57.8c-5.1 7.4-2.2 18.9 6.5 26 8.8 7.1 20.3 7.4 26.2 0.6l44.5-57.8c5.3-7.4 2.5-19.1-6.4-26.3-8.8-7.2-20.5-7.3-26.3-0.3z" fill="#43A3FB" /></svg>