<?xml version="1.0" standalone="no"?><!DOCTYPE svg PUBLIC "-//W3C//DTD SVG 1.1//EN" "http://www.w3.org/Graphics/SVG/1.1/DTD/svg11.dtd"><svg class="icon" width="200px" height="200.00px" viewBox="0 0 1024 1024" version="1.1" xmlns="http://www.w3.org/2000/svg"><path d="M224.6 45.5h20V372h-20z" fill="#1677B3" /><path d="M95.151 123.273l11.474-16.382 267.436 187.313-11.474 16.382z" fill="#1677B3" /><path d="M95.222 294.24l267.436-187.313 11.474 16.382-267.436 187.313z" fill="#1677B3" /><path d="M234.4 208.5m-24.1 0a24.1 24.1 0 1 0 48.2 0 24.1 24.1 0 1 0-48.2 0Z" fill="#1677B3" /><path d="M234.4 242.6c-18.8 0-34.1-15.3-34.1-34.1s15.3-34.1 34.1-34.1 34.1 15.3 34.1 34.1-15.3 34.1-34.1 34.1z m0-48.2c-7.8 0-14.1 6.3-14.1 14.1s6.3 14.1 14.1 14.1 14.1-6.3 14.1-14.1-6.3-14.1-14.1-14.1z" fill="#1677B3" /><path d="M234.6 208.7m-18.5 0a18.5 18.5 0 1 0 37 0 18.5 18.5 0 1 0-37 0Z" fill="#FFFFFF" /><path d="M234.6 237.2c-15.7 0-28.5-12.8-28.5-28.5s12.8-28.5 28.5-28.5 28.5 12.8 28.5 28.5-12.8 28.5-28.5 28.5z m0-37c-4.7 0-8.5 3.8-8.5 8.5s3.8 8.5 8.5 8.5 8.5-3.8 8.5-8.5-3.8-8.5-8.5-8.5z" fill="#FFFFFF" /><path d="M188.47 56.63l12.194-15.852 39.788 30.607-12.194 15.852z" fill="#1677B3" /><path d="M227.014 71.353l39.788-30.607 12.194 15.852-39.788 30.607zM231.288 103.815l58.844-42.857 11.774 16.166-58.844 42.857z" fill="#1677B3" /><path d="M168.961 78.574l11.774-16.166 58.844 42.857-11.774 16.166zM109.987 332.537l4.066-50.737 19.936 1.598-4.066 50.737z" fill="#1677B3" /><path d="M78.138 277.722l6.658-18.86 47.339 16.712-6.658 18.86zM82.37 247.232l7.15-18.678 67.989 26.026-7.15 18.678z" fill="#1677B3" /><path d="M139.497 337.59l3.973-73.797 19.972 1.075-3.973 73.797zM184.558 359.008l40.343-31.034 12.194 15.852-40.343 31.034z" fill="#1677B3" /><path d="M223.59 343.756l12.195-15.852 40.343 31.033-12.194 15.852zM227.91 310.787l11.774-16.166 59.733 43.505-11.774 16.166z" fill="#1677B3" /><path d="M164.788 336.768l59.733-43.505 11.774 16.166-59.733 43.505zM325.2 86.6h20v50.2h-20z" fill="#1677B3" /><path d="M331.74 145.263l5.147-19.326 48.509 12.921-5.148 19.326zM308.127 168.394l5.654-19.184 69.83 20.58-5.654 19.184z" fill="#1677B3" /><path d="M295.99 84.466l19.994-0.505 1.838 72.778-19.994 0.505zM78.227 136.021l48.724-12.073 4.81 19.412-48.724 12.073z" fill="#1677B3" /><path d="M118.543 134.66l0.829-50.195 19.998 0.33-0.829 50.195zM146.567 151.4l3.11-72.735 19.981 0.854-3.109 72.735z" fill="#1677B3" /><path d="M82.756 165.14l70.18-19.357 5.318 19.28-70.18 19.358zM330.188 264.774l48.726-14.71 5.78 19.145-48.726 14.71z" fill="#1677B3" /><path d="M323.937 273.644l19.988-0.676 1.718 50.87-19.988 0.675zM294.53 257.384l20-0.151 0.558 73.9-20 0.15z" fill="#1677B3" /><path d="M303.504 245.927l69.117-22.859 6.28 18.988-69.117 22.86zM224.6 555.5h20V882h-20z" fill="#1677B3" /><path d="M95.173 633.267l11.474-16.382 267.436 187.313-11.474 16.382z" fill="#1677B3" /><path d="M95.198 804.205L362.602 616.89l11.474 16.38-267.404 187.314z" fill="#1677B3" /><path d="M234.4 752.6c-18.8 0-34.1-15.3-34.1-34.1s15.3-34.1 34.1-34.1 34.1 15.3 34.1 34.1-15.3 34.1-34.1 34.1z m0-48.2c-7.8 0-14.1 6.3-14.1 14.1s6.3 14.1 14.1 14.1 14.1-6.3 14.1-14.1-6.3-14.1-14.1-14.1z" fill="#1677B3" /><path d="M234.6 718.7m-18.5 0a18.5 18.5 0 1 0 37 0 18.5 18.5 0 1 0-37 0Z" fill="#FDFEFF" /><path d="M234.6 747.2c-15.7 0-28.5-12.8-28.5-28.5s12.8-28.5 28.5-28.5 28.5 12.8 28.5 28.5-12.8 28.5-28.5 28.5z m0-37c-4.7 0-8.5 3.8-8.5 8.5s3.8 8.5 8.5 8.5 8.5-3.8 8.5-8.5-3.8-8.5-8.5-8.5z" fill="#FFFFFF" /><path d="M188.454 566.61l12.194-15.852 39.788 30.607-12.194 15.852z" fill="#1677B3" /><path d="M226.962 581.259l39.789-30.607 12.194 15.852-39.789 30.607zM231.194 613.846l58.844-42.857 11.774 16.166-58.844 42.857z" fill="#1677B3" /><path d="M168.95 588.542l11.774-16.166 58.844 42.857-11.774 16.166zM113.972 843.156l4.01-50.04 19.936 1.599-4.01 50.039z" fill="#1677B3" /><path d="M78.17 787.746l6.658-18.86 47.339 16.712-6.658 18.86zM82.36 757.224l7.15-18.678 67.989 26.026-7.15 18.678z" fill="#1677B3" /><path d="M143.03 848.136l3.91-72.698 19.971 1.074-3.91 72.698zM187.478 868.945l39.788-30.607 12.194 15.852-39.788 30.607z" fill="#1677B3" /><path d="M225.872 854.204l12.194-15.852 39.789 30.607-12.194 15.852zM230.156 821.725l11.774-16.166 58.844 42.857L289 864.582z" fill="#1677B3" /><path d="M167.873 847.05l58.845-42.857 11.774 16.166-58.845 42.857zM325.2 596.6h20v50.2h-20z" fill="#1677B3" /><path d="M331.763 655.248l5.148-19.326 48.508 12.921-5.148 19.326zM308.109 678.393l5.654-19.184 69.83 20.58-5.654 19.184z" fill="#1677B3" /><path d="M295.99 594.475l19.994-0.505 1.837 72.779-19.994 0.504zM78.225 645.992l48.724-12.073 4.81 19.412-48.724 12.073z" fill="#1677B3" /><path d="M118.58 644.579l0.83-50.195 19.997 0.33-0.828 50.195zM146.579 661.406l3.107-72.735 19.982 0.854-3.107 72.734z" fill="#1677B3" /><path d="M82.757 675.143l70.18-19.358 5.317 19.28-70.18 19.358zM330.953 776.064l48.056-14.508 5.78 19.146-48.056 14.508z" fill="#1677B3" /><path d="M324.65 785.028l19.987-0.675 1.695 50.17-19.988 0.675zM295.734 769.098l20-0.15 0.55 72.8-20 0.15z" fill="#1677B3" /><path d="M303.475 755.826l69.117-22.86 6.28 18.988-69.117 22.86zM538.6 301.5h20V628h-20z" fill="#1677B3" /><path d="M409.158 379.257l11.474-16.382L688.07 550.188l-11.474 16.382z" fill="#1677B3" /><path d="M409.192 550.225l267.404-187.313 11.474 16.38-267.404 187.313z" fill="#1677B3" /><path d="M548.4 498.6c-18.8 0-34.1-15.3-34.1-34.1s15.3-34.1 34.1-34.1 34.1 15.3 34.1 34.1-15.3 34.1-34.1 34.1z m0-48.2c-7.8 0-14.1 6.3-14.1 14.1s6.3 14.1 14.1 14.1 14.1-6.3 14.1-14.1-6.3-14.1-14.1-14.1z" fill="#1677B3" /><path d="M548.6 464.7m-18.5 0a18.5 18.5 0 1 0 37 0 18.5 18.5 0 1 0-37 0Z" fill="#FFFFFF" /><path d="M548.6 493.2c-15.7 0-28.5-12.8-28.5-28.5s12.8-28.5 28.5-28.5 28.5 12.8 28.5 28.5-12.8 28.5-28.5 28.5z m0-37c-4.7 0-8.5 3.8-8.5 8.5s3.8 8.5 8.5 8.5 8.5-3.8 8.5-8.5-3.8-8.5-8.5-8.5z" fill="#FFFFFF" /><path d="M502.45 312.63l12.193-15.853 39.789 30.607-12.194 15.852z" fill="#1677B3" /><path d="M540.955 327.26l39.789-30.608 12.194 15.852-39.789 30.607zM545.175 359.869l58.845-42.858 11.774 16.166-58.845 42.858z" fill="#1677B3" /><path d="M482.936 334.566L494.71 318.4l58.844 42.857-11.774 16.166zM427.972 589.16l4.01-50.04 19.936 1.598-4.01 50.04z" fill="#1677B3" /><path d="M392.075 533.681l6.658-18.86 47.338 16.712-6.658 18.86zM396.358 503.238l7.15-18.678 67.988 26.026-7.15 18.678z" fill="#1677B3" /><path d="M457.021 594.098l3.91-72.698 19.972 1.075-3.91 72.698zM501.47 614.962l39.788-30.606 12.194 15.852-39.788 30.606z" fill="#1677B3" /><path d="M539.865 600.219l12.194-15.852 39.789 30.607-12.194 15.852zM544.14 567.748l11.774-16.166 58.844 42.857-11.774 16.166z" fill="#1677B3" /><path d="M481.94 593.013l58.844-42.858 11.774 16.166-58.844 42.858zM639.2 342.6h20v50.2h-20z" fill="#1677B3" /><path d="M645.716 401.34l5.148-19.326 48.508 12.921-5.148 19.326zM622.117 424.405l5.654-19.184 69.83 20.58-5.654 19.184z" fill="#1677B3" /><path d="M609.995 340.47l19.994-0.504 1.839 72.778-19.994 0.505zM392.21 392.008l48.724-12.073 4.81 19.412-48.725 12.073z" fill="#1677B3" /><path d="M432.574 390.547l0.829-50.195 19.998 0.33-0.829 50.195zM460.577 407.395l3.109-72.734 19.982 0.854-3.109 72.734z" fill="#1677B3" /><path d="M396.76 421.142l70.179-19.358 5.318 19.28-70.18 19.358zM644.945 522.067l48.057-14.507 5.78 19.146-48.057 14.507z" fill="#1677B3" /><path d="M638.64 531.035l19.988-0.675 1.694 50.17-19.988 0.675zM609.743 515.091l20-0.15 0.55 72.8-20 0.15z" fill="#1677B3" /><path d="M617.472 501.828l69.116-22.86 6.28 18.988-69.116 22.86zM803.6 607.5h20V934h-20z" fill="#1677B3" /><path d="M674.168 685.241l11.474-16.382L953.08 856.172l-11.474 16.382z" fill="#1677B3" /><path d="M674.171 856.22l267.404-187.313 11.474 16.38L685.645 872.6z" fill="#1677B3" /><path d="M813.4 804.6c-18.8 0-34.1-15.3-34.1-34.1s15.3-34.1 34.1-34.1 34.1 15.3 34.1 34.1-15.3 34.1-34.1 34.1z m0-48.2c-7.8 0-14.1 6.3-14.1 14.1s6.3 14.1 14.1 14.1 14.1-6.3 14.1-14.1-6.3-14.1-14.1-14.1z" fill="#1677B3" /><path d="M813.6 770.7m-18.5 0a18.5 18.5 0 1 0 37 0 18.5 18.5 0 1 0-37 0Z" fill="#FFFFFF" /><path d="M813.6 799.2c-15.7 0-28.5-12.8-28.5-28.5s12.8-28.5 28.5-28.5 28.5 12.8 28.5 28.5-12.8 28.5-28.5 28.5z m0-37c-4.7 0-8.5 3.8-8.5 8.5s3.8 8.5 8.5 8.5 8.5-3.8 8.5-8.5-3.8-8.5-8.5-8.5z" fill="#FFFFFF" /><path d="M767.508 618.687l12.194-15.852 39.788 30.607-12.194 15.852z" fill="#1677B3" /><path d="M806.094 633.384l39.794-30.607 12.194 15.854-39.794 30.607zM810.28 665.748l58.843-42.864L880.9 639.05l-58.844 42.864z" fill="#1677B3" /><path d="M747.913 640.553l11.774-16.166 58.844 42.857-11.774 16.166zM692.97 895.16l4.01-50.039 19.936 1.598-4.01 50.04z" fill="#1677B3" /><path d="M657.104 839.681l6.658-18.86 47.339 16.712-6.658 18.86zM661.352 809.231l7.15-18.678 67.988 26.026-7.15 18.678z" fill="#1677B3" /><path d="M722.059 900.089l3.91-72.698 19.972 1.074-3.91 72.698zM766.482 920.95l39.788-30.606 12.194 15.852-39.788 30.607z" fill="#1677B3" /><path d="M804.85 906.212l12.194-15.852 39.788 30.606-12.194 15.852zM809.116 873.736l11.774-16.166 58.845 42.857-11.774 16.166z" fill="#1677B3" /><path d="M747.02 899.057l58.844-42.864 11.776 16.166-58.845 42.864zM904.2 648.6h20v50.2h-20z" fill="#1677B3" /><path d="M910.722 707.32l5.148-19.326 48.508 12.921-5.148 19.326zM887.106 730.414l5.654-19.184 69.83 20.58-5.654 19.184z" fill="#1677B3" /><path d="M875 646.477l19.994-0.505 1.838 72.778-19.994 0.505zM657.095 698.015l48.724-12.073 4.81 19.412-48.724 12.073z" fill="#1677B3" /><path d="M697.606 696.54l0.828-50.196 19.998 0.33-0.828 50.195zM725.586 713.394l3.107-72.734 19.982 0.853-3.107 72.734z" fill="#1677B3" /><path d="M661.748 727.137l70.18-19.358 5.317 19.28-70.18 19.358zM909.942 828.06l48.056-14.508 5.78 19.146-48.056 14.508z" fill="#1677B3" /><path d="M903.632 837.025l19.988-0.675 1.694 50.17-19.988 0.675zM874.75 821.1l20-0.15 0.55 72.8-20 0.15z" fill="#1677B3" /><path d="M882.468 807.822l69.116-22.86 6.28 18.989-69.116 22.86zM852.6 55.5h20V382h-20z" fill="#1677B3" /><path d="M723.146 133.247l11.474-16.382 267.436 187.313-11.474 16.382z" fill="#1677B3" /><path d="M723.186 304.246L990.59 116.933l11.474 16.38L734.66 320.626z" fill="#1677B3" /><path d="M862.4 252.6c-18.8 0-34.1-15.3-34.1-34.1s15.3-34.1 34.1-34.1 34.1 15.3 34.1 34.1-15.3 34.1-34.1 34.1z m0-48.2c-7.8 0-14.1 6.3-14.1 14.1s6.3 14.1 14.1 14.1 14.1-6.3 14.1-14.1-6.3-14.1-14.1-14.1z" fill="#1677B3" /><path d="M862.6 218.7m-18.5 0a18.5 18.5 0 1 0 37 0 18.5 18.5 0 1 0-37 0Z" fill="#FCFCFC" /><path d="M862.6 247.2c-15.7 0-28.5-12.8-28.5-28.5s12.8-28.5 28.5-28.5 28.5 12.8 28.5 28.5-12.8 28.5-28.5 28.5z m0-37c-4.7 0-8.5 3.8-8.5 8.5s3.8 8.5 8.5 8.5 8.5-3.8 8.5-8.5-3.8-8.5-8.5-8.5z" fill="#FFFFFF" /><path d="M816.524 66.705l12.194-15.852 39.788 30.607-12.194 15.852z" fill="#1677B3" /><path d="M854.866 81.32l39.789-30.607 12.194 15.852-39.789 30.607zM859.16 113.892l58.845-42.858L929.779 87.2l-58.844 42.858z" fill="#1677B3" /><path d="M797.003 88.65l11.774-16.165 58.844 42.857-11.774 16.166zM741.973 343.163l4.01-50.039 19.937 1.598-4.01 50.039z" fill="#1677B3" /><path d="M706.073 287.652l6.658-18.86 47.339 16.712-6.658 18.86zM710.36 257.236l7.15-18.678 67.989 26.026-7.15 18.678z" fill="#1677B3" /><path d="M771.014 348.06l3.91-72.697 19.972 1.074-3.91 72.698zM815.495 368.958l39.788-30.607 12.194 15.852-39.788 30.607z" fill="#1677B3" /><path d="M853.854 354.239l12.194-15.852 39.788 30.607-12.194 15.852zM858.124 321.775l11.774-16.166 58.845 42.857-11.774 16.166z" fill="#1677B3" /><path d="M795.92 347.036l58.844-42.857 11.774 16.166-58.844 42.857zM953.2 96.6h20v50.2h-20z" fill="#1677B3" /><path d="M959.697 155.333l5.148-19.326 48.508 12.921-5.148 19.326zM936.126 178.417l5.654-19.184 69.83 20.58-5.655 19.184z" fill="#1677B3" /><path d="M924.001 94.466l19.994-0.505 1.839 72.779-19.994 0.505zM706.193 146.022l48.724-12.073 4.81 19.412-48.724 12.073z" fill="#1677B3" /><path d="M746.566 144.616l0.829-50.195 19.998 0.33-0.829 50.195z" fill="#1677B3" /><path d="M774.575 161.387l3.107-72.735 19.982 0.854-3.107 72.734z" fill="#1677B3" /><path d="M710.752 175.14l70.179-19.357 5.318 19.28-70.18 19.357z" fill="#1677B3" /><path d="M958.938 276.07l48.057-14.507 5.78 19.146-48.057 14.508z" fill="#1677B3" /><path d="M952.63 285.042l19.988-0.675 1.694 50.17-19.988 0.675z" fill="#1677B3" /><path d="M923.752 269.084l20-0.15 0.55 72.8-20 0.15z" fill="#1677B3" /><path d="M931.465 255.83l69.116-22.86 6.28 18.988-69.116 22.86z" fill="#1677B3" /></svg>