<?xml version="1.0" standalone="no"?><!DOCTYPE svg PUBLIC "-//W3C//DTD SVG 1.1//EN" "http://www.w3.org/Graphics/SVG/1.1/DTD/svg11.dtd"><svg class="icon" width="200px" height="200.00px" viewBox="0 0 1024 1024" version="1.1" xmlns="http://www.w3.org/2000/svg"><path d="M791.405714 206.262857C864.950857 224.987429 914.285714 292.132571 914.285714 365.714286c0 75.958857-67.876571 142.262857-144.420571 146.176l-1.865143 0.036571-514.816-0.109714C169.325714 505.344 109.714286 448.182857 109.714286 365.714286c0-66.889143 40.630857-115.309714 114.395428-143.213715 12.617143-50.724571 42.934857-88.137143 89.563429-109.348571 6.034286-2.816 12.251429-5.083429 18.578286-6.802286 29.842286-8.045714 59.611429-4.022857 88.502857 7.606857 5.339429-11.922286 11.446857-22.966857 19.090285-34.084571C474.221714 29.878857 527.908571 0 603.428571 0c73.984 0 159.049143 75.044571 178.761143 194.194286l1.536 10.313143 7.68 1.792z m-18.980571 231.972572C808.740571 433.005714 841.142857 399.506286 841.142857 365.714286c0-48.310857-38.034286-91.428571-91.428571-91.428572a36.571429 36.571429 0 0 1-36.571429-35.474285c-1.755429-59.648-20.918857-103.387429-51.748571-133.266286C640.292571 85.065143 614.217143 73.142857 603.428571 73.142857c-50.761143 0-82.285714 17.554286-103.314285 48.164572a148.48 148.48 0 0 0-15.140572 28.525714l-3.218285 8.265143c-0.475429 1.316571-4.425143 12.434286-5.558858 15.250285l-1.609142 3.803429c-1.097143 2.377143-2.267429 4.534857-3.84 6.875429-8.923429 13.238857-23.515429 22.674286-44.617143 14.848-2.56-0.987429-19.017143-10.898286-25.746286-14.08-17.993143-8.411429-35.108571-11.593143-49.005714-7.826286-2.340571 0.621714-4.571429 1.462857-7.094857 2.596571-30.134857 13.714286-46.811429 37.485714-52.041143 75.666286a36.571429 36.571429 0 0 1-25.673143 30.061714C207.469714 303.140571 182.857143 329.069714 182.857143 365.714286c0 42.24 28.452571 69.485714 73.142857 73.069714h510.976l5.485714-0.548571z" fill="#4D84DB" /><path d="M259.474286 705.316571h186.404571l-70.948571 301.860572 426.166857-469.065143h-186.404572l70.948572-301.860571z" fill="#FFFFFF" /><path d="M365.714286 658.285714l232.594285-256-42.971428 182.857143H694.857143l-232.594286 256 42.971429-182.857143z" fill="#FFBD06" /></svg>